<?xml version="1.0" encoding="UTF-8"?>
<svg width="1200" height="630" viewBox="0 0 1200 630" xmlns="http://www.w3.org/2000/svg">
    <defs>
        <linearGradient id="bgGradient" x1="0%" y1="0%" x2="100%" y2="100%">
            <stop offset="0%" style="stop-color:#3B82F6;stop-opacity:0.1" />
            <stop offset="100%" style="stop-color:#60A5FA;stop-opacity:0.1" />
        </linearGradient>
        <linearGradient id="textGradient" x1="0%" y1="0%" x2="100%" y2="0%">
            <stop offset="0%" style="stop-color:#3B82F6;stop-opacity:1" />
            <stop offset="100%" style="stop-color:#60A5FA;stop-opacity:1" />
        </linearGradient>
    </defs>
    
    <!-- Background -->
    <rect width="1200" height="630" fill="white"/>
    <rect width="1200" height="630" fill="url(#bgGradient)"/>
    
    <!-- Shopping Cart Icon -->
    <path transform="translate(460,180) scale(3)" fill="url(#textGradient)" d="M7 18c-1.1 0-1.99.9-1.99 2S5.9 22 7 22s2-.9 2-2-.9-2-2-2zM1 3c0 .55.45 1 1 1h1l3.6 7.59-1.35 2.44C4.52 15.37 5.48 17 7 17h11c.55 0 1-.45 1-1s-.45-1-1-1H7l1.1-2h7.45c.75 0 1.41-.41 1.75-1.03l3.58-6.49A.996.996 0 0020.01 4H5.21l-.67-1.43a.993.993 0 00-.9-.57H2c-.55 0-1 .45-1 1zm16 15c-1.1 0-1.99.9-1.99 2s.89 2 1.99 2 2-.9 2-2-.9-2-2-2z"/>
    
    <!-- Text -->
    <text x="600" y="420" text-anchor="middle" font-family="Arial, sans-serif" font-size="72" font-weight="bold" fill="url(#textGradient)">ShopSmart</text>
    <text x="600" y="480" text-anchor="middle" font-family="Arial, sans-serif" font-size="32" fill="#4B5563">Smart Shopping Made Easy</text>
</svg>
